<?xml version="1.0" encoding="utf-8"?>
<!-- Generator: Adobe Illustrator 23.1.0, SVG Export Plug-In . SVG Version: 6.00 Build 0)  -->
<svg version="1.1" id="Outline" xmlns="http://www.w3.org/2000/svg" xmlns:xlink="http://www.w3.org/1999/xlink" x="0px" y="0px"
	 viewBox="0 0 298.7 255.8" style="enable-background:new 0 0 298.7 255.8;" xml:space="preserve">
<style type="text/css">
	.st0{opacity:0.5;}
</style>
<path class="st0" d="M277.3,106.7H64l70.2-70.2c8.4-8.3,8.4-21.8,0.1-30.2c0,0-0.1-0.1-0.1-0.1c-8.3-8.3-21.8-8.3-30.1,0L12.6,97.9
	C4.6,105.9,0,116.7,0,128l0,0c0.1,11.2,4.6,22,12.6,29.9l91.5,91.7c8.4,8.3,21.9,8.3,30.2-0.1c8.3-8.4,8.3-21.9-0.1-30.2l0,0
	l-70.2-70h213.3c11.8,0,21.3-9.6,21.3-21.3S289.1,106.7,277.3,106.7z"/>
</svg>
