<?xml version="1.0" encoding="utf-8"?>
<!-- Generator: Adobe Illustrator 23.1.0, SVG Export Plug-In . SVG Version: 6.00 Build 0)  -->
<svg version="1.1" id="Outline" xmlns="http://www.w3.org/2000/svg" xmlns:xlink="http://www.w3.org/1999/xlink" x="0px" y="0px"
	 viewBox="0 0 298.7 255.8" style="enable-background:new 0 0 298.7 255.8;" xml:space="preserve">
<style type="text/css">
	.st0{opacity:0.5;}
</style>
<path class="st0" d="M0,128c0,11.8,9.6,21.3,21.3,21.3h213.3l-70.2,70l0,0c-8.4,8.3-8.4,21.8-0.1,30.2c8.3,8.4,21.8,8.4,30.2,0.1
	l91.5-91.7c8-7.9,12.5-18.6,12.6-29.9l0,0c0-11.3-4.6-22.1-12.6-30.1L194.6,6.2c-8.3-8.3-21.8-8.3-30.1,0c0,0-0.1,0.1-0.1,0.1
	c-8.3,8.4-8.2,21.9,0.1,30.2l70.2,70.2H21.3C9.6,106.7,0,116.2,0,128z"/>
</svg>
