<?xml version="1.0" encoding="utf-8"?>
<!-- Generator: Adobe Illustrator 23.1.0, SVG Export Plug-In . SVG Version: 6.00 Build 0)  -->
<svg version="1.1" id="Bold" xmlns="http://www.w3.org/2000/svg" xmlns:xlink="http://www.w3.org/1999/xlink" x="0px" y="0px"
	 viewBox="0 0 456.3 512" style="enable-background:new 0 0 456.3 512;" xml:space="preserve">
<style type="text/css">
	.st0{fill:#4196F1;}
</style>
<path class="st0" d="M235.6,512c-17.7,0-32-14.3-32-32c0-8.5,3.4-16.6,9.4-22.6l163.7-163.6c20.8-20.8,20.8-54.6,0-75.4c0,0,0,0,0,0
	L213,54.6c-12.5-12.5-12.5-32.8,0-45.3c12.5-12.5,32.8-12.5,45.3,0L421.9,173c45.8,45.8,45.8,120.1,0,165.9L258.3,502.6
	C252.3,508.6,244.1,512,235.6,512z"/>
<path class="st0" d="M32,512c-17.7,0-32-14.3-32-32c0-8.5,3.4-16.6,9.4-22.6l193.8-193.8c4.2-4.2,4.2-10.9,0-15.1c0,0,0,0,0,0
	L9.4,54.6C-3.1,42.2-3.1,21.9,9.4,9.4s32.8-12.5,45.3,0l193.8,193.8c29.1,29.2,29.1,76.4,0,105.6L54.6,502.6
	C48.6,508.6,40.5,512,32,512z"/>
</svg>
