<?xml version="1.0" encoding="utf-8"?>
<!-- Generator: Adobe Illustrator 23.1.0, SVG Export Plug-In . SVG Version: 6.00 Build 0)  -->
<svg version="1.1" id="Слой_1" xmlns="http://www.w3.org/2000/svg" xmlns:xlink="http://www.w3.org/1999/xlink" x="0px" y="0px"
	 viewBox="0 0 512 512" style="enable-background:new 0 0 512 512;" xml:space="preserve">
<style type="text/css">
	.st0{fill-rule:evenodd;clip-rule:evenodd;fill:#00B9EE;}
</style>
<path class="st0" d="M239.5,1.3c-4.3,0.8-11.2,2.8-15.5,4.5c-17.2,6.7-13.9,3.7-112.1,101.5c-50.2,50.1-93.3,93.8-95.8,97.2
	c-16.7,23.2-20.9,56.1-10.5,83c6.9,17.7,4,14.6,102.5,113.2c63.4,63.5,93.2,92.7,97.8,95.8c29.1,19.5,65.3,20.4,96.1,2.4
	c6.2-3.6,20.1-17.1,98.5-95.3c63.5-63.4,92.7-93.2,95.8-97.8c19.5-29.1,20.4-65.3,2.4-96.1c-3.6-6.2-17.1-20.1-95.3-98.5
	c-94-94.1-96.8-96.8-111.2-103.3C277,0.8,255.7-1.8,239.5,1.3z M274.3,18.2c9.3,2.5,19.3,7.7,27.5,14.3
	c9.7,7.8,175.5,174.2,180.3,180.9c9,12.7,13.1,25.8,13.1,42.4s-4.1,29.7-13.1,42.4c-4.8,6.7-170.6,173.1-180.3,180.9
	c-14.1,11.4-27.7,16.2-46,16.2c-16.6,0-29.7-4.1-42.4-13.1c-6.6-4.7-172.9-170.5-180.9-180.3c-6.7-8.3-11.8-18.1-14.5-28
	c-2.4-8.8-2.4-27.1,0-36c2.7-10.1,8.9-21.8,16-30c3.5-4.1,44.9-45.7,91.8-92.5c62.9-62.6,86.9-85.9,91.1-88.4
	c7.7-4.5,16.6-8,24.6-9.7C249.8,15.5,265.9,16,274.3,18.2z M236.1,96.1c-7.1,1.8-13.5,5.8-18.3,11.4c-9.6,11.2-9.6,11.5,0.9,120.7
	c1.7,17.6,3.3,33.1,3.7,34.5c2.4,10.2,11.7,19.9,22,23.1c8.3,2.6,14.4,2.5,22.8-0.1c5.5-1.7,7.8-3.1,12.5-7.8c9.1-9,9.1-8.8,15-70.3
	c6-62.3,7.1-83.1,4.6-90.5C297,110,290,102.5,282,98.6l-0.8-0.4c-3.8-1.9-8.1-2.9-12.4-3l-10.5-0.1C247,94.9,239.5,95.3,236.1,96.1z
	 M276.1,113.2c2.4,1.2,4.6,3.3,6,6c2,3.8,2.2,5.4,2.1,20.1c-0.2,18.9-9.6,116.8-11.8,121.8c-3.4,7.8-12.7,12.1-21.3,9.8
	c-5.1-1.4-10.4-5.8-12.2-10c-0.6-1.4-3.7-32-7-67.8c-6.5-71.2-6.5-69.7-0.7-75.9c5.1-5.5,9-6.4,26.2-6.1
	C269.4,111.3,273,111.7,276.1,113.2z M247.8,312.8c-12,2.5-22.9,11.2-28.4,22.7c-2.9,6.2-3.2,7.6-3.2,16.7s0.3,10.6,3.2,16.7
	c7.8,16.4,25.4,25.9,42.5,22.9c13.4-2.4,24.3-10.7,30.1-22.9c2.9-6.2,3.2-7.6,3.2-16.7c0-8.8-0.3-10.7-2.7-15.8
	c-5.1-10.8-12.4-17.8-22.8-21.8C263.8,312.4,253.7,311.6,247.8,312.8z M266.3,330.2c9.9,4.2,15.6,17.4,12.4,29
	c-5.3,18.9-31.2,23.5-42.4,7.5c-7.3-10.4-5-26.2,5-34.1C247.1,328,258.4,326.9,266.3,330.2z"/>
</svg>
