<svg xmlns="http://www.w3.org/2000/svg" viewBox="0 0 513.21 478.71"><defs><style>.cls-1{fill:#fff;stroke:#fff;stroke-miterlimit:10;}</style></defs><title>Ресурс 1</title><g id="Слой_2" data-name="Слой 2"><g id="Слой_2-2" data-name="Слой 2"><path class="cls-1" d="M373.7,16.5A129,129,0,0,1,496.6,150.3v.6c0,30-11.5,64.2-34.3,101.4-19,31-45.6,64-79.2,98.2-58.2,59.2-116.9,101.3-123.4,105.9l-3.1,2.2-3.1-2.2c-6.6-4.7-66.1-47.6-123.4-105.9-33.6-34.2-60.2-67.2-79.2-98.2C28.1,215,16.6,180.9,16.6,150.9v-.6A129,129,0,0,1,139.5,16.5,120.75,120.75,0,0,1,242.6,78.6l14,25.3,14-25.3A120.75,120.75,0,0,1,373.7,16.5m.2-16A136.35,136.35,0,0,0,256.6,70.9,136.55,136.55,0,0,0,139.3.5,145,145,0,0,0,.6,150.9c0,144.5,233.7,311.5,243.7,318.5l12.3,8.7,12.3-8.7c9.9-7,243.7-174,243.7-318.5A145,145,0,0,0,373.9.5Z"/><path class="cls-1" d="M39.08,54.81c-14.46,18-18.87,36-24,57-1.14,4.66-7.39,30.91-6,58,2.44,47.72,27.8,82.74,57,122,31.67,42.6,37.28,36,107,110,19.61,20.82,44,36.54,65,56,4.35,4.05,8,7.49,14,9,21.12,5.31,42.13-20.6,74-54,47.14-49.41,39.87-33.29,79-76,38-41.44,58.5-63.86,77-101,13.7-27.51,25.74-51.68,25-86-1-46.47-24.73-78.79-32-88-8.95-11.33-30.14-37.41-68-48-30.26-8.46-55.37-2.61-66,0-23.91,5.88-45.21,11.24-69,41-5.95,7.44-9.44,15.63-15.48,25.25-4.36,7,2.06,13.47,1.48,13.75-1.17.56-9.85-29.34-32-51-23.85-23.31-54.31-28.26-65-30a137.68,137.68,0,0,0-57,3C91.79,19.09,61.3,27.21,39.08,54.81Z"/></g></g></svg>