<?xml version="1.0" encoding="utf-8"?>
<!-- Generator: Adobe Illustrator 23.1.0, SVG Export Plug-In . SVG Version: 6.00 Build 0)  -->
<svg version="1.1" id="Слой_1" xmlns="http://www.w3.org/2000/svg" xmlns:xlink="http://www.w3.org/1999/xlink" x="0px" y="0px"
	 viewBox="0 0 512.1 448" style="enable-background:new 0 0 512.1 448;" xml:space="preserve">
<style type="text/css">
	.st0{fill:#B5B5B5;enable-background:new    ;}
</style>
<path class="st0" d="M0,160v256c0,17.7,14.3,32,32,32h96V128H32C14.3,128,0,142.3,0,160z"/>
<path class="st0" d="M452.9,160h-94.5c-8.3,0-12.4-5.5-13.8-7.9s-4.2-8.7-0.2-15.9l33.3-60c7.3-13.1,8.1-28.6,2.1-42.4
	S362,10,347.4,6.4l-23.5-5.9c-5.7-1.4-11.8,0.4-15.8,4.8L180.5,147c-13.2,14.7-20.5,33.7-20.5,53.5V368c0,44.1,35.9,80,80,80h159.2
	c35.9,0,67.7-24.2,77.2-58.8l34.2-156.8c1-4.4,1.5-8.8,1.5-13.3C512,186.5,485.5,160,452.9,160L452.9,160z"/>
</svg>
