<?xml version="1.0" encoding="utf-8"?>
<!-- Generator: Adobe Illustrator 23.1.0, SVG Export Plug-In . SVG Version: 6.00 Build 0)  -->
<svg version="1.1" id="Слой_1" xmlns="http://www.w3.org/2000/svg" xmlns:xlink="http://www.w3.org/1999/xlink" x="0px" y="0px"
	 viewBox="0 0 512 512" style="enable-background:new 0 0 512 512;" xml:space="preserve">
<style type="text/css">
	.st0{fill-rule:evenodd;clip-rule:evenodd;fill:#E55252;}
</style>
<path class="st0" d="M236.4,0.5c-37.9,3.6-66.1,11.7-98,27.9C100.6,47.6,66.7,78,42,114.8c-10.5,15.6-23.3,41.9-29.4,60.5
	c-5,15-8.9,32.1-11.3,49c-1.7,11.8-1.7,51.2,0,63c4.2,29.5,12,55.3,24.1,80c13.8,28,27.2,46.8,49.5,69.1c22,22,41.1,35.8,68.1,49
	c18.8,9.2,30.9,13.7,50,18.5c50,12.5,100.2,10.1,149-7.1c14.9-5.3,40.8-18.2,54-27.1c30.2-20.2,57.3-48,76.9-78.8
	c7.2-11.3,18.8-35.3,23.5-48.6c23.5-66.2,19.4-137.2-11.5-199.3c-12.5-25.1-26.3-44.7-45.8-64.8c-21.5-22.2-43-37.9-71.1-51.8
	C338.4,11.8,310.8,4,278,0.9C267.8-0.1,244.6-0.3,236.4,0.5z M290.9,34.8c63.4,10.7,117.1,45.7,152.3,99.5
	c17,25.9,28.5,56.4,33.8,89.1c2.5,15.3,2.5,49.7,0,65c-10.8,66.8-47.3,122.2-104.2,158c-24.3,15.3-53.7,26.1-85,31.1
	c-15.4,2.5-49.7,2.5-65,0c-49.7-8.1-90.7-28.8-125.6-63.6C62.8,379.5,41.8,338,33.8,288.3c-2.5-15.3-2.5-49.7,0-65
	C44.3,158.6,78.4,105,132.1,69.2c30.6-20.4,67.5-33.3,105.4-36.7C248.3,31.5,279.3,32.8,290.9,34.8z M136.9,241.2
	c-6.6,2.9-10.4,10.6-9,18.1c0.9,4.7,5.9,10.2,10.4,11.5c2.5,0.7,40.1,1,119.3,0.8c115-0.3,115.7-0.3,118.4-2.4
	c5.2-3.9,6.9-7.1,6.9-13.4s-1.6-9.5-6.9-13.4c-2.7-2.1-3.3-2.1-119.4-2.3C161.1,239.9,139.4,240.1,136.9,241.2z"/>
</svg>
