<svg display="none" xmlns="http://www.w3.org/2000/svg">

	<symbol id="share" viewBox="0 0 512 512">
		<path d="M412.4,312.9c-32.7,0-63.4,16.2-81.9,43.2l-138.9-62.7c9.9-23.8,9.9-50.6,0.1-74.4l138.7-63
	c31.2,45.2,93.1,56.5,138.3,25.2S525.2,88,494,42.9s-93.1-56.5-138.3-25.2c-26.9,18.6-42.9,49.2-42.9,81.9
	c0.1,5.6,0.7,11.2,1.7,16.8l-147.4,67c-40.1-37.6-103.2-35.5-140.8,4.6s-35.5,103.2,4.6,140.8c38.2,35.8,97.5,35.9,135.9,0.3
	l147.8,66.7c-1,5.5-1.6,11.1-1.7,16.7c0,55,44.6,99.6,99.5,99.6c55,0,99.6-44.6,99.6-99.5C512,357.5,467.5,312.9,412.4,312.9
	C412.5,312.9,412.5,312.9,412.4,312.9z M412.4,42.7c31.4,0,56.9,25.5,56.9,56.9s-25.5,56.9-56.9,56.9c-31.4,0-56.9-25.5-56.9-56.9
	c0,0,0,0,0,0C355.6,68.2,381,42.7,412.4,42.7z M99.6,312.9c-31.4,0-56.9-25.5-56.9-56.9s25.5-56.9,56.9-56.9s56.9,25.5,56.9,56.9
	c0,0,0,0,0,0C156.4,287.4,131,312.8,99.6,312.9z M412.4,469.3c-31.4,0-56.9-25.5-56.9-56.9s25.5-56.9,56.9-56.9
	c31.4,0,56.9,25.5,56.9,56.9l0,0C469.3,443.9,443.9,469.3,412.4,469.3z" />
	</symbol>


	<symbol id="clock" viewBox="0 0 512 512">
		<path d="M256,0C114.6,0,0,114.6,0,256s114.6,256,256,256s256-114.6,256-256C511.8,114.7,397.3,0.2,256,0z M256,469.3
	c-117.8,0-213.3-95.5-213.3-213.3S138.2,42.7,256,42.7S469.3,138.2,469.3,256C469.2,373.8,373.8,469.2,256,469.3z" />
		<path d="M256,128c-11.8,0-21.3,9.6-21.3,21.3v92.3l-71.9,45.1c-10,6.3-13.1,19.4-6.8,29.5c6.3,10,19.4,13.1,29.5,6.8
	l81.9-51.2c6.3-3.9,10.1-10.9,10-18.3V149.3C277.3,137.6,267.8,128,256,128z" />
	</symbol>


	<symbol id="view" viewBox="0 0 488.9 291.4">
		<g>
			<path
				d="M244.4,0C151,0,66.3,51.1,3.8,134.1c-5.1,6.8-5.1,16.3,0,23.1C66.3,240.3,151,291.4,244.4,291.4
		S422.5,240.3,485,157.3c5.1-6.8,5.1-16.3,0-23.1C422.5,51.1,337.8,0,244.4,0z M251.1,248.3c-62,3.9-113.2-47.2-109.3-109.3
		c3.2-51.2,44.7-92.7,95.9-95.9c62-3.9,113.2,47.2,109.3,109.3C343.7,203.5,302.2,245,251.1,248.3z M248,200.9
		c-33.4,2.1-61-25.4-58.8-58.8c1.7-27.6,24.1-49.9,51.7-51.7c33.4-2.1,61,25.4,58.8,58.8C297.9,176.9,275.5,199.2,248,200.9z" />
		</g>
	</symbol>

	<symbol id="calendar" viewBox="0 0 512 512">
		<path d="M405.3,42.7H384V21.3C384,9.6,374.4,0,362.7,0c-11.8,0-21.3,9.6-21.3,21.3v21.3H170.7V21.3
	c0-11.8-9.6-21.3-21.3-21.3S128,9.6,128,21.3v21.3h-21.3C47.8,42.7,0.1,90.5,0,149.3v256C0.1,464.2,47.8,511.9,106.7,512h298.7
	c58.9-0.1,106.6-47.8,106.7-106.7v-256C511.9,90.5,464.2,42.7,405.3,42.7z M42.7,149.3c0-35.3,28.7-64,64-64h298.7
	c35.3,0,64,28.7,64,64v21.3H42.7V149.3z M405.3,469.3H106.7c-35.3,0-64-28.7-64-64v-192h426.7v192
	C469.3,440.7,440.7,469.3,405.3,469.3z" />
		<circle cx="256" cy="320" r="32" />
		<circle cx="149.3" cy="320" r="32" />
		<circle cx="362.7" cy="320" r="32" />
	</symbol>

	<symbol id="comment" viewBox="0 0 512 512">
		<g>
			<path d="M512,512H256.4C115,511.9,0.4,397.3,0.5,255.9S115.2-0.1,256.6,0C391.7,0.1,503.5,105.1,512,239.9v1.3V512z
		 M256.4,42.7C138.6,42.7,43.1,138.2,43.1,256s95.5,213.3,213.3,213.3h212.9V241.9C461.7,129.9,368.7,42.8,256.4,42.7z" />
			<rect x="149.3" y="149.3" width="128" height="42.7" />
			<rect x="149.3" y="234.7" width="213.3" height="42.7" />
			<rect x="149.3" y="320" width="213.3" height="42.7" />
		</g>
	</symbol>

	<symbol id="heart" viewBox="0 0 512 512">
		<g>
			<path d="M373.1,35.6c34.1,1.6,65.6,16.3,88.8,41.4c23.3,25.2,35.4,58,34.1,92.4l0,0.3v0.3c0,30-11.5,64.2-34.3,101.4
		c-19,31-45.6,64-79.2,98.2c-58.2,59.2-116.9,101.3-123.4,105.9l-3.1,2.2l-3.1-2.2c-6.6-4.7-66.1-47.6-123.4-105.9
		c-33.6-34.2-60.2-67.2-79.2-98.2C27.5,234.1,16,200,16,170v-0.3l0-0.3C14.7,135,26.8,102.2,50.1,77c23.2-25.1,54.7-39.8,88.8-41.4
		c42.9,0.8,82.3,24.6,103.1,62.1l14,25.3l14-25.3C290.8,60.2,330.2,36.4,373.1,35.6 M373.3,19.6C324.4,20.3,279.7,47.2,256,90
		c-23.7-42.8-68.4-69.6-117.3-70.4C58.9,23-3,90.2,0,170c0,144.5,233.7,311.5,243.7,318.5l12.3,8.7l12.3-8.7
		c9.9-7,243.7-174,243.7-318.5C515,90.2,453.1,23,373.3,19.6L373.3,19.6z" />
		</g>
	</symbol>


	<symbol id="telegram" viewBox="0 0 512 446">
		<path d="M252.2,93.9C118.4,145.6,7.7,188.6,6.4,189.5c-3.3,2.2-6.4,7.4-6.4,10.8c0,4.2,2.4,9.2,5.6,11.4
	c1.6,1.1,29.2,11.8,61.4,23.8s59,22.3,59.6,22.9s11.1,33.5,23.4,73.1s23,73.5,23.8,75.4c0.9,1.9,2.9,4.2,4.6,5.2
	c3.5,2.1,10.6,2.5,13.9,0.7c1.2-0.6,16.6-12.9,34.2-27.3c38.5-31.4,37.2-30.5,42.4-31.6c8.2-1.8,9.8-0.9,58.2,34.2
	c84.9,61.6,78.7,57.4,84.1,57.4c5.6,0,9.5-2.5,12.1-7.6c2.7-5.1,89-422.5,88.3-426.5C510.4,5.2,504-0.1,497.8,0
	C496.5,0,386,42.3,252.2,93.9z M400.8,93.2c0.7,0.7,1.2,1.9,1.2,2.8s-36.8,35.8-81.7,77.6C211,275.1,206.6,279.2,203.7,284.2
	c-3.9,6.6-5.3,13.2-8.8,39.3c-1.8,13.7-3.8,25-4.6,26.3c-1.5,2.3-5.6,3-8.2,1.4c-0.7-0.5-7.2-21.3-14.4-46.2
	c-13.9-48.2-14.7-52.4-11.3-60.1c0.9-2.1,3.1-5.1,4.9-6.8c4-3.8,234.6-146,236.8-146C398.9,92,400.1,92.5,400.8,93.2z" />
	</symbol>

	<symbol id="vk" viewBox="0 0 512 298">
		<path d="M8.1,1.4C6.4,2.1,4,4,2.6,5.5c-11.7,12.7,17.9,88.7,61,156.3c21.5,33.8,38.5,55.7,57.6,74.2
	c26.3,25.5,53.8,42.9,83.9,52.9c19.1,6.4,29.4,8.2,50,8.8c24.9,0.7,35.4-1.6,40.9-9c2-2.7,2.1-4.3,2.6-36.5
	c0.4-28.6,0.8-34.3,2.2-37.4c2.1-4.7,5.3-6,13.9-5.6c16.4,0.9,39.5,18.3,76.4,57.7c10.8,11.6,21.9,22.6,24.5,24.6
	c8.9,6.5,9.6,6.6,49.6,6.3c35.3-0.3,35.9-0.3,39.5-2.6c8.4-5.2,8.8-14,1.5-28.5c-8.5-17-27.5-39.9-62.9-76.3
	c-11.3-11.6-21.3-22.5-22.2-24.2c-0.9-1.7-1.6-5.1-1.6-7.6c0-4,0.9-5.8,8.1-16.3c46.8-68.3,67.1-102.6,72-121.9
	c2.7-10.8,1.6-14.8-5-18.2C490.3,0,489.4,0,455.7,0c-23.2,0-35.7,0.4-38.3,1.2c-6.2,1.9-11.2,6.9-15,15.1
	C384.2,56.1,364,90.5,344.5,115c-8.4,10.6-22.4,24.2-27.9,26.9c-8.7,4.4-14.8,2.1-17-6.5c-0.7-2.9-1.1-24.1-1.1-64.2
	c0-56.6-0.1-60-1.9-64c-3.4-7.5-1.7-7.3-57.3-7.3c-47.7,0-49.4,0.1-52.6,2c-4,2.5-6.6,8-5.7,12.6c0.3,1.8,3.3,6.8,6.7,11.1
	c7.6,9.8,10.5,15.5,13,25.1c1.8,7,1.9,11.4,1.9,57.2c0,31-0.4,51-1,53.3c-3.6,13-18.1,7.1-35.7-14.7c-23-28.4-44.8-70-66.2-126.2
	c-4-10.4-8-16-13.4-18.4C82.4,0.2,79.4,0,46.6,0.1C19.2,0.1,10.4,0.4,8.1,1.4z" />
	</symbol>

	<symbol id="fb" viewBox="0 0 221 409">
		<path d="M137.4,2c-36.1,7.4-59.9,28.6-70.5,62.8C63,77.4,62,88.8,62,118.7V147H34.7c-30.2,0-31.5,0.2-33.4,6
	c-1.7,4.9-1.7,67.1,0,72c1.9,5.4,4.4,5.9,34.4,5.9L62,231v85.9v85.9l2.4,2.8l2.4,2.8l35.8,0.3c38.6,0.3,42.2,0,44.2-4.3
	c0.9-1.9,1.2-25.2,1.2-88.5V230l33.5-0.3c30.6-0.3,33.6-0.4,35.3-2.1c1.7-1.7,1.8-4.6,1.8-39.2V151l-2.3-2.3
	c-2.3-2.3-2.4-2.3-35.3-2.6l-33.1-0.3l0.3-26.7c0.4-28.7,0.6-30.1,6.1-35.3c4.2-4,6.6-4.3,34.6-4.9l27.3-0.6l2.4-2.8l2.4-2.8v-34
	v-34l-2.5-2.5L216,0l-34.8,0.1C151.6,0.2,145.1,0.4,137.4,2z" />
	</symbol>

	<symbol id="copy" viewBox="0 0 385 385">
		<path fill-rule="evenodd" clip-rule="evenodd"
			d="M14.1701 1.06461C9.61411 2.37761 2.39311 9.82661 1.07511 14.5756C0.343105 17.2116 0.00310053 56.5466 0.000100527 139.209C-0.00489947 246.15 0.172105 260.417 1.54711 263.709C3.51611 268.424 7.4371 272.566 12.2911 275.063C15.8341 276.885 17.9461 276.996 43.8671 276.721C71.6231 276.427 71.6481 276.425 75.3361 273.927C77.3661 272.552 80.2571 269.665 81.7601 267.512C84.1601 264.076 84.4941 262.662 84.4941 255.939C84.4941 249.421 84.1221 247.73 81.9941 244.588C80.6191 242.556 77.7341 239.664 75.5841 238.161C71.8351 235.539 71.0841 235.414 57.3341 235.103L42.9941 234.779V138.853V42.9266H138.92H234.846L235.17 57.2666C235.481 71.0166 235.606 71.7676 238.228 75.5166C239.731 77.6666 242.623 80.5516 244.655 81.9266C247.797 84.0546 249.488 84.4266 256.006 84.4266C262.729 84.4266 264.143 84.0926 267.579 81.6926C269.732 80.1896 272.619 77.2986 273.994 75.2686C276.492 71.5806 276.494 71.5556 276.788 43.7996C277.063 17.8786 276.952 15.7666 275.13 12.2236C272.633 7.36961 268.491 3.44861 263.776 1.47961C260.48 0.102613 246.296 -0.0633924 138.776 0.0166076C64.7711 0.0716076 16.1981 0.480612 14.1701 1.06461ZM142.17 129.065C137.614 130.378 130.393 137.827 129.075 142.576C127.581 147.953 127.581 363.901 129.075 369.278C130.477 374.33 137.324 381.118 142.61 382.697C148.572 384.479 363.416 384.479 369.378 382.697C374.691 381.11 381.177 374.624 382.764 369.311C384.546 363.349 384.546 148.505 382.764 142.543C381.177 137.23 374.691 130.744 369.378 129.157C364.228 127.618 147.496 127.531 142.17 129.065Z" />
	</symbol>

	<symbol id="search" viewBox="0 0 513.749 513.749">
		<g>
			<path
				d="M504.352,459.061l-99.435-99.477c74.402-99.427,54.115-240.344-45.312-314.746S119.261-9.277,44.859,90.15   S-9.256,330.494,90.171,404.896c79.868,59.766,189.565,59.766,269.434,0l99.477,99.477c12.501,12.501,32.769,12.501,45.269,0   c12.501-12.501,12.501-32.769,0-45.269L504.352,459.061z M225.717,385.696c-88.366,0-160-71.634-160-160s71.634-160,160-160   s160,71.634,160,160C385.623,314.022,314.044,385.602,225.717,385.696z" />
		</g>
	</symbol>

	<symbol id="arrow-right" viewBox="0 0 512.1 291.2">
		<path d="M407.3,282.2l83.6-83.6c28.2-29.6,28.2-76,0-105.6L407.3,9.4c-12.5-12.5-32.8-12.5-45.3,0s-12.5,32.8,0,45.3
	l0,0l59.3,59.3L32,114.4c-17.7,0-32,14.3-32,32l0,0c0,17.7,14.3,32,32,32l388.9-0.5l-58.9,59c-12.3,12.7-11.9,33,0.8,45.2
	C375.2,294.2,394.9,294.2,407.3,282.2L407.3,282.2z" />
	</symbol>

	<symbol id="close" viewBox="0 0 512.021 512.021">
		<g>
			<path
				d="M301.258,256.01L502.645,54.645c12.501-12.501,12.501-32.769,0-45.269c-12.501-12.501-32.769-12.501-45.269,0l0,0   L256.01,210.762L54.645,9.376c-12.501-12.501-32.769-12.501-45.269,0s-12.501,32.769,0,45.269L210.762,256.01L9.376,457.376   c-12.501,12.501-12.501,32.769,0,45.269s32.769,12.501,45.269,0L256.01,301.258l201.365,201.387   c12.501,12.501,32.769,12.501,45.269,0c12.501-12.501,12.501-32.769,0-45.269L301.258,256.01z" />
		</g>
	</symbol>

	<symbol id="arrow-top" viewBox="0 0 512 270">
		<path d="M45.2,269.8L248.3,66.9c4.2-4.2,10.9-4.2,15.1,0L466.8,270l45.2-45.1L308.7,21.8c-29.2-29.1-76.4-29.1-105.6,0L0,224.6
	L45.2,269.8z" />
	</symbol>
</svg>