<?xml version="1.0" encoding="utf-8"?>
<!-- Generator: Adobe Illustrator 23.1.0, SVG Export Plug-In . SVG Version: 6.00 Build 0)  -->
<svg version="1.1" id="Слой_1" xmlns="http://www.w3.org/2000/svg" xmlns:xlink="http://www.w3.org/1999/xlink" x="0px" y="0px"
	 viewBox="0 0 512 446" style="enable-background:new 0 0 512 446;" xml:space="preserve">
<style type="text/css">
	.st0{fill-rule:evenodd;clip-rule:evenodd;fill:#039BE5;}
</style>
<path class="st0" d="M252.2,93.9C118.4,145.6,7.7,188.6,6.4,189.5c-3.3,2.2-6.4,7.4-6.4,10.8c0,4.2,2.4,9.2,5.6,11.4
	c1.6,1.1,29.2,11.8,61.4,23.8c32.2,12,59,22.3,59.6,22.9c0.6,0.6,11.1,33.5,23.4,73.1c12.3,39.6,23,73.5,23.8,75.4
	c0.9,1.9,2.9,4.2,4.6,5.2c3.5,2.1,10.6,2.5,13.9,0.7c1.2-0.6,16.6-12.9,34.2-27.3c38.5-31.4,37.2-30.5,42.4-31.6
	c8.2-1.8,9.8-0.9,58.2,34.2c84.9,61.6,78.7,57.4,84.1,57.4c5.6,0,9.5-2.5,12.1-7.6c2.7-5.1,89-422.5,88.3-426.5
	C510.4,5.2,504-0.1,497.8,0C496.5,0,386,42.3,252.2,93.9z M400.8,93.2c0.7,0.7,1.2,1.9,1.2,2.8c0,0.9-36.8,35.8-81.7,77.6
	C211,275.1,206.6,279.2,203.7,284.2c-3.9,6.6-5.3,13.2-8.8,39.3c-1.8,13.7-3.8,25-4.6,26.3c-1.5,2.3-5.6,3-8.2,1.4
	c-0.7-0.5-7.2-21.3-14.4-46.2c-13.9-48.2-14.7-52.4-11.3-60.1c0.9-2.1,3.1-5.1,4.9-6.8c4-3.8,234.6-146,236.8-146
	C398.9,92,400.1,92.5,400.8,93.2z"/>
</svg>
