<?xml version="1.0" encoding="utf-8"?>
<!-- Generator: Adobe Illustrator 23.1.0, SVG Export Plug-In . SVG Version: 6.00 Build 0)  -->
<svg version="1.1" id="Режим_изоляции"
	 xmlns="http://www.w3.org/2000/svg" xmlns:xlink="http://www.w3.org/1999/xlink" x="0px" y="0px" viewBox="0 0 65.4 53.1"
	 style="enable-background:new 0 0 65.4 53.1;" xml:space="preserve">
<style type="text/css">
	.st0{fill:#00B9EE;}
</style>
<g>
	<path class="st0" d="M65.4,6.3c-2.4,1.1-5,1.8-7.7,2.1c2.8-1.7,4.9-4.3,5.9-7.4C61,2.5,58.1,3.6,55,4.2C52.6,1.6,49.1,0,45.2,0
		c-7.4,0-13.4,6-13.4,13.4c0,1.1,0.1,2.1,0.3,3.1c-11.1-0.6-21-5.9-27.6-14c-1.2,2-1.8,4.3-1.8,6.7c0,4.7,2.4,8.8,6,11.2
		c-2.2-0.1-4.3-0.7-6.1-1.7c0,0.1,0,0.1,0,0.2c0,6.5,4.6,11.9,10.8,13.1c-1.1,0.3-2.3,0.5-3.5,0.5c-0.9,0-1.7-0.1-2.5-0.2
		c1.7,5.3,6.7,9.2,12.5,9.3c-4.6,3.6-10.4,5.7-16.7,5.7c-1.1,0-2.1-0.1-3.2-0.2c5.9,3.8,13,6,20.6,6c24.7,0,38.2-20.4,38.2-38.2
		c0-0.6,0-1.2,0-1.7C61.3,11.3,63.6,9,65.4,6.3L65.4,6.3z"/>
</g>
</svg>
