<?xml version="1.0" encoding="utf-8"?>
<!-- Generator: Adobe Illustrator 23.1.0, SVG Export Plug-In . SVG Version: 6.00 Build 0)  -->
<svg version="1.1" id="Слой_1" xmlns="http://www.w3.org/2000/svg" xmlns:xlink="http://www.w3.org/1999/xlink" x="0px" y="0px"
	 viewBox="0 0 512 298" style="enable-background:new 0 0 512 298;" xml:space="preserve">
<style type="text/css">
	.st0{fill-rule:evenodd;clip-rule:evenodd;fill:#4065D6;}
</style>
<path class="st0" d="M8.1,1.4C6.4,2.1,4,4,2.6,5.5c-11.7,12.7,17.9,88.7,61,156.3c21.5,33.8,38.5,55.7,57.6,74.2
	c26.3,25.5,53.8,42.9,83.9,52.9c19.1,6.4,29.4,8.2,50,8.8c24.9,0.7,35.4-1.6,40.9-9c2-2.7,2.1-4.3,2.6-36.5
	c0.4-28.6,0.8-34.3,2.2-37.4c2.1-4.7,5.3-6,13.9-5.6c16.4,0.9,39.5,18.3,76.4,57.7c10.8,11.6,21.9,22.6,24.5,24.6
	c8.9,6.5,9.6,6.6,49.6,6.3c35.3-0.3,35.9-0.3,39.5-2.6c8.4-5.2,8.8-14,1.5-28.5c-8.5-17-27.5-39.9-62.9-76.3
	c-11.3-11.6-21.3-22.5-22.2-24.2c-0.9-1.7-1.6-5.1-1.6-7.6c0-4,0.9-5.8,8.1-16.3c46.8-68.3,67.1-102.6,72-121.9
	c2.7-10.8,1.6-14.8-5-18.2C490.3,0,489.4,0,455.7,0c-23.2,0-35.7,0.4-38.3,1.2c-6.2,1.9-11.2,6.9-15,15.1
	C384.2,56.1,364,90.5,344.5,115c-8.4,10.6-22.4,24.2-27.9,26.9c-8.7,4.4-14.8,2.1-17-6.5c-0.7-2.9-1.1-24.1-1.1-64.2
	c0-56.6-0.1-60-1.9-64c-3.4-7.5-1.7-7.3-57.3-7.3c-47.7,0-49.4,0.1-52.6,2c-4,2.5-6.6,8-5.7,12.6c0.3,1.8,3.3,6.8,6.7,11.1
	c7.6,9.8,10.5,15.5,13,25.1c1.8,7,1.9,11.4,1.9,57.2c0,31-0.4,51-1,53.3c-3.6,13-18.1,7.1-35.7-14.7c-23-28.4-44.8-70-66.2-126.2
	c-4-10.4-8-16-13.4-18.4C82.4,0.2,79.4,0,46.6,0.1C19.2,0.1,10.4,0.4,8.1,1.4z"/>
</svg>
