<svg xmlns="http://www.w3.org/2000/svg" xmlns:xlink="http://www.w3.org/1999/xlink" viewBox="0 0 260 260"><defs><style>.cls-1{isolation:isolate;}.cls-2{fill:url(#radial-gradient);}.cls-3{fill:#dedcc2;}.cls-3,.cls-5,.cls-9{opacity:0.3;}.cls-10,.cls-3,.cls-9{mix-blend-mode:overlay;}.cls-4{fill:#d98640;}.cls-5{fill:#df7f34;mix-blend-mode:multiply;}.cls-6{fill:#7e5036;}.cls-7{fill:#ffe3b3;}.cls-8{fill:#a15d2c;}.cls-10,.cls-9{fill:#fff5be;}.cls-10{opacity:0.5;}</style><radialGradient id="radial-gradient" cx="311.73" cy="412.7" r="90.72" gradientTransform="matrix(1.76, -0.03, -0.03, 1.79, -426.69, -624.64)" gradientUnits="userSpaceOnUse"><stop offset="0.35" stop-color="#f6b85c"/><stop offset="1" stop-color="#f3a450"/></radialGradient></defs><title>Artboard 14</title><g class="cls-1"><g id="Layer_1" data-name="Layer 1"><g id="_Group_" data-name="&lt;Group&gt;"><path id="_Path_" data-name="&lt;Path&gt;" class="cls-2" d="M255.83,153.15C266.6,94.54,236.3,44.72,185.9,20.51,152.73,4.58,114.53,6.83,79.71,19.87,14.16,44.43-16.84,114.94,14,177.74,65.15,282,233.42,275.09,255.83,153.15Z"/><path id="_Path_2" data-name="&lt;Path&gt;" class="cls-3" d="M20.43,105.33c-3.31,54.2,44,91.78,97.91,87.54,82.79-6.52,100.62-76,82.73-120.33-12.3-30.47-42.47-51.94-77-53.42C70.87,16.84,23.51,54.87,20.43,105.33Z"/><path id="_Path_3" data-name="&lt;Path&gt;" class="cls-3" d="M32.92,107.33c10.92,82,168.29,43,140.76-43.68C159.91,20.26,100.06,22.78,68.35,42.76,47.24,56.07,29.46,81.4,32.92,107.33Z"/><path id="_Path_4" data-name="&lt;Path&gt;" class="cls-4" d="M43.7,88.14c-.66-4-18.14-12.48-26.62-16.39A111.53,111.53,0,0,0,11,83.86c6,1.1,20.54,6,22.19,10,2.19,5.27-9.22,44.33-4.39,44.33S44.58,93.4,43.7,88.14Z"/><path id="_Path_5" data-name="&lt;Path&gt;" class="cls-4" d="M201.4,29.19c-7.5,12.34-26.68,46.07-26.68,46.07s-15.48-24.58-17.3-21.39S146,96.66,148.77,96.66s12.74-27.77,12.74-27.77L175.17,88S193.38,54.78,196.56,53s11.38,17.75,14.12,15.93-9.56-27.77-9.56-27.77l6.69-7.56C205.73,32,203.58,30.6,201.4,29.19Z"/><path id="_Path_6" data-name="&lt;Path&gt;" class="cls-4" d="M256.88,146.39c.48-3.69.8-7.33,1-10.94-8.53-4.29-27.23-13.39-30.49-12.5-4.24,1.15-44.38,45.15-41.29,53.64s19.68,27.79,21.61,25.86c2.35-2.35-14.66-27-14.66-27l36.27-40.91Z"/><path id="_Path_7" data-name="&lt;Path&gt;" class="cls-4" d="M104.64,188.94l7.56-10.75a3.71,3.71,0,0,1-1.61-.83,17.79,17.79,0,0,1-4-4.91L93.1,192.52s-21.47,7.41-24.74,12.63c-2.51,4-3.51,19-.57,28.57a137.18,137.18,0,0,0,16.34,7.56c-2.66-9.26-5.38-23.72-3-28.41,3.26-6.52,58.27-16.6,63.29-23.93C145.86,186.79,104.64,188.94,104.64,188.94Z"/><path id="_Path_8" data-name="&lt;Path&gt;" class="cls-4" d="M90.5,34.3c-2.68-5.36,30-13.21,35.05-12.75s19.12,20,16.39,21.85-18.67-12.29-18.67-12.29S92.32,37.94,90.5,34.3Z"/><path id="_Compound_Path_" data-name="&lt;Compound Path&gt;" class="cls-5" d="M185.9,20.51C152.73,4.58,114.53,6.83,79.71,19.87,14.16,44.43-16.84,114.94,14,177.74,65.15,282,233.42,275.09,255.83,153.15,266.6,94.54,236.3,44.72,185.9,20.51Zm47,119.32c-22,108.57-171,117.62-214.41,26C-7.64,110.65,21,47.55,79.46,24.63c31-12.18,64.88-14.83,93.94-1.28C217.57,44,243.5,87.64,232.94,139.83Z"/><path id="_Path_9" data-name="&lt;Path&gt;" class="cls-4" d="M177.85,129.29c-2,.65-11.78,18.81-14.06,21.09-2.85,2.84-32.52,3.83-32.52,3.83s-9.49-15.14-10.14-19.05S136.67,121,136.67,121s-13.09-23.43-15-22.77,5.4,20.06,5.4,20.06-14.46,11.54-16.32,13.59c-3.64,4,11.78,31.15,16.89,32.85,5.87,2,31.19-3.1,41.66-5.72C171.86,158.37,179.8,128.64,177.85,129.29Z"/><path id="_Path_10" data-name="&lt;Path&gt;" class="cls-6" d="M107.8,159c-4.59-1.54-25.24,30.45-13.61,37.85,6.57,4.19,28.26.73,29.62-9.47C124.35,183.35,114.35,161.13,107.8,159Z"/><path id="_Path_11" data-name="&lt;Path&gt;" class="cls-6" d="M80.77,111.88c0-4.5-14.9-20-21.47-18.56s-16.66,25.57-9.46,34.57C55.66,135.17,80.77,119.88,80.77,111.88Z"/><path id="_Path_12" data-name="&lt;Path&gt;" class="cls-6" d="M111.7,61.66c-.36-6.92,14.16-15.37,19.1-15.66,5.46-.32,16.93,5.83,17.29,13.84.22,4.78-9.46,25.84-14.55,26.2C130.27,86.27,112.14,70,111.7,61.66Z"/><path id="_Path_13" data-name="&lt;Path&gt;" class="cls-6" d="M187.09,101.5c-1.46-9.1,18.19-22.93,22.56-21.47,4.69,1.56,14.55,30.56,7.64,33.48C213.2,115.23,188.12,108,187.09,101.5Z"/><path id="_Path_14" data-name="&lt;Path&gt;" class="cls-5" d="M144.93,141.68s22.81-2.29,24.12-6.52c1.35-4.41-15.65-11.09-15.65-11.09Z"/><path id="_Path_15" data-name="&lt;Path&gt;" class="cls-5" d="M149.49,216.65s23.47-3.59,24.77-7.83c1.36-4.4-19.23-10.1-19.23-10.1Z"/><path id="_Path_16" data-name="&lt;Path&gt;" class="cls-7" d="M143.4,115.9c6.93-3.2,18.06,9.91,17.87,13.72-.2,4.1-15.68,16-19.55,11.16C139.43,137.89,138.46,118.17,143.4,115.9Z"/><path id="_Path_17" data-name="&lt;Path&gt;" class="cls-5" d="M77.13,76.81s23.14-2.94,24.44-7.17c1.36-4.41-17.27-10.43-17.27-10.43Z"/><path id="_Path_18" data-name="&lt;Path&gt;" class="cls-5" d="M55,163.19s23.14-.33,24.45-4.56c1.35-4.41-17.6-11.41-17.6-11.41Z"/><path id="_Path_19" data-name="&lt;Path&gt;" class="cls-7" d="M64.87,55.57c3.95-6.54,24.49-9.22,26.47-6,2.14,3.51-10,29-15.88,27.14C72,75.64,62.06,60.22,64.87,55.57Z"/><path id="_Path_20" data-name="&lt;Path&gt;" class="cls-7" d="M193,140.73c1.64-5.87,18.17-12.12,21.64-10.51,3.72,1.72-3,24.14-8.94,25.9C202.17,157.16,191.54,146,193,140.73Z"/><path id="_Path_21" data-name="&lt;Path&gt;" class="cls-7" d="M39.69,146.59c1.56-3.88,26.62-6.57,27.13-4,1.33,6.62-9.26,21.84-13.23,20.52S38.37,149.9,39.69,146.59Z"/><path id="_Path_22" data-name="&lt;Path&gt;" class="cls-7" d="M151.9,192.92c-5.3.88-18.44,19.91-16.23,23.6S157.06,218.73,160,215,156.32,192.18,151.9,192.92Z"/><path id="_Path_23" data-name="&lt;Path&gt;" class="cls-8" d="M173.7,98.81c-3.67-5.51-20.22,11-15.32,13.48S176.44,102.92,173.7,98.81Z"/><path id="_Path_24" data-name="&lt;Path&gt;" class="cls-8" d="M97.35,115c-5.66-1.84-4.86,22.51.2,20.4S102.05,116.56,97.35,115Z"/><path id="_Path_25" data-name="&lt;Path&gt;" class="cls-8" d="M162.61,169.63c-6.06,2.08,5.37,22.39,9,18.3S167.28,168,162.61,169.63Z"/><path id="_Path_26" data-name="&lt;Path&gt;" class="cls-7" d="M161.88,33.46C160,34.65,166,49.34,170.19,48.2S166,30.82,161.88,33.46Z"/><path id="_Path_27" data-name="&lt;Path&gt;" class="cls-7" d="M82,175.56c-3.43-3.42,7-14,9.07-12.47C94.12,165.36,84.67,178.21,82,175.56Z"/><path id="_Path_28" data-name="&lt;Path&gt;" class="cls-7" d="M53.23,79.13c1.13-3.78,16.63,2.64,14.36,6.8S52.61,81.18,53.23,79.13Z"/><path id="_Path_29" data-name="&lt;Path&gt;" class="cls-7" d="M201.1,176.43c-1.17-3.53,16.25-7.93,16.63-5.29S202.24,179.83,201.1,176.43Z"/><path id="_Path_30" data-name="&lt;Path&gt;" class="cls-9" d="M52.76,123.07c-2.45-2.45,1-18.63,5.78-19.91s9.64,7.39,9.32,11.88S55,125.32,52.76,123.07Z"/><path id="_Path_31" data-name="&lt;Path&gt;" class="cls-9" d="M115.39,61.41c0-3.86,12.14-8.7,14.45-8.35,4.17.65-.32,20.88-3.53,20.88S115.39,64.62,115.39,61.41Z"/><path id="_Path_32" data-name="&lt;Path&gt;" class="cls-9" d="M191.44,100.84c-.87-3,7.71-11.89,11.24-11.89s5.78,17,3.21,18.31S192.08,103.09,191.44,100.84Z"/><path id="_Path_33" data-name="&lt;Path&gt;" class="cls-9" d="M95.15,190.62c-3.1-3.62,3.91-16.93,6.75-17.34,2.25-.32,10.61,12.18,8,15.71S97.08,192.87,95.15,190.62Z"/><path id="_Path_34" data-name="&lt;Path&gt;" class="cls-10" d="M69.16,57.69C67.49,58.9,74,73,77,71.35c1.47-.81,6.75-10.12,4.88-13.66S71,56.39,69.16,57.69Z"/><path id="_Path_35" data-name="&lt;Path&gt;" class="cls-10" d="M44.94,148.52c.82-2.47,12.37-2.65,13.34-1.3,1.62,2.28-2.93,10.41-5.53,10.41S44.29,150.47,44.94,148.52Z"/><path id="_Path_36" data-name="&lt;Path&gt;" class="cls-10" d="M145.07,123.8c2.31-.88,9.76,8.2,8.85,9.55s-8,6-9.87,4.7S141.36,125.22,145.07,123.8Z"/><path id="_Path_37" data-name="&lt;Path&gt;" class="cls-10" d="M140.25,213.57c-1.14-1.51,5.2-10.08,6.83-10.73s8.13,7.16,6.18,9.76S141.22,214.88,140.25,213.57Z"/><path id="_Path_38" data-name="&lt;Path&gt;" class="cls-10" d="M205.85,135.43c-2.25-.75-8.83,4.34-9,6.42s6.89,11.89,8.33,10.53S209.37,136.59,205.85,135.43Z"/></g></g></g></svg>