<?xml version="1.0" encoding="utf-8"?>
<!-- Generator: Adobe Illustrator 23.1.0, SVG Export Plug-In . SVG Version: 6.00 Build 0)  -->
<svg version="1.1" id="Слой_1" xmlns="http://www.w3.org/2000/svg" xmlns:xlink="http://www.w3.org/1999/xlink" x="0px" y="0px"
	 viewBox="0 0 309 309" style="enable-background:new 0 0 309 309;" xml:space="preserve">
<style type="text/css">
	.st0{fill:#003354;}
	.st1{fill:#7B99B3;}
	.st2{fill:#FFFFFF;}
</style>
<g>
	<path class="st0" d="M203.5,100l12.3-15.4c20.2,17.7,31.7,42.9,31.7,69.9c0,51.3-41.7,92.9-92.9,92.9s-92.9-41.7-92.9-92.9
		c0-49.7,39.3-90.5,88.4-92.8v19.7c-38.3,2.3-68.8,34.2-68.8,73.1c0,40.4,32.9,73.3,73.3,73.3s73.3-32.9,73.3-73.3
		C227.8,133.6,219,113.9,203.5,100L203.5,100z M193.7,97.9c-1.5,1.9-1.2,4.8,0.7,6.3c15.4,12.3,24.3,30.6,24.3,50.3
		c0,35.4-28.8,64.3-64.3,64.3s-64.3-28.8-64.3-64.3s28.8-64.3,64.3-64.3c2.5,0,4.5-2,4.5-4.5V57.1c0-2.5-2-4.5-4.5-4.5
		c-27.1,0-52.6,10.7-72,30s-30,44.9-30,72s10.7,52.6,30,72s44.9,30,72,30s52.6-10.7,72-30s30-44.9,30-72c0-31.3-14-60.4-38.5-79.8
		c-0.9-0.7-2.1-1.1-3.3-0.9c-1.2,0.1-2.3,0.7-3,1.7L193.7,97.9L193.7,97.9z"/>
	<path class="st1" d="M203.5,100l12.3-15.4c20.2,17.7,31.7,42.9,31.7,69.9c0,51.3-41.7,92.9-92.9,92.9s-92.9-41.7-92.9-92.9
		c0-49.7,39.3-90.5,88.4-92.8v19.7c-38.3,2.3-68.8,34.2-68.8,73.1c0,40.4,32.9,73.3,73.3,73.3s73.3-32.9,73.3-73.3
		C227.8,133.6,219,113.9,203.5,100L203.5,100z"/>
	<path class="st0" d="M198.6,154.5c0,24.3-19.8,44.1-44.1,44.1s-44.1-19.8-44.1-44.1s19.8-44.1,44.1-44.1S198.6,130.2,198.6,154.5
		L198.6,154.5z M207.6,154.5c0-29.3-23.8-53.1-53.1-53.1s-53.1,23.8-53.1,53.1s23.8,53.1,53.1,53.1S207.6,183.8,207.6,154.5
		L207.6,154.5z"/>
	<path class="st1" d="M198.6,154.5c0,24.3-19.8,44.1-44.1,44.1s-44.1-19.8-44.1-44.1s19.8-44.1,44.1-44.1S198.6,130.2,198.6,154.5
		L198.6,154.5z"/>
	<path class="st2" d="M184.7,139.9c0-8-6.5-14.5-14.5-14.5s-14.5,6.5-14.5,14.5c0,8,6.5,14.5,14.5,14.5S184.7,147.9,184.7,139.9
		L184.7,139.9z"/>
	<path class="st0" d="M28.6,0h53.2c2.5,0,4.5,2,4.5,4.5c0,2.5-2,4.5-4.5,4.5H28.6C17.8,9,9,17.8,9,28.6v53.2c0,2.5-2,4.5-4.5,4.5
		c-2.5,0-4.5-2-4.5-4.5V28.6C0,12.8,12.8,0,28.6,0L28.6,0z"/>
	<path class="st0" d="M304.5,86.3c-2.5,0-4.5-2-4.5-4.5V28.6C300,17.8,291.2,9,280.4,9h-53.2c-2.5,0-4.5-2-4.5-4.5
		c0-2.5,2-4.5,4.5-4.5h53.2C296.2,0,309,12.8,309,28.6v53.2C309,84.3,307,86.3,304.5,86.3L304.5,86.3z"/>
	<path class="st0" d="M280.4,309h-53.2c-2.5,0-4.5-2-4.5-4.5s2-4.5,4.5-4.5h53.2c10.8,0,19.6-8.8,19.6-19.6v-53.2
		c0-2.5,2-4.5,4.5-4.5s4.5,2,4.5,4.5v53.2C309,296.2,296.2,309,280.4,309L280.4,309z"/>
	<path class="st0" d="M4.5,222.7c2.5,0,4.5,2,4.5,4.5v53.2c0,10.8,8.8,19.6,19.6,19.6h53.2c2.5,0,4.5,2,4.5,4.5s-2,4.5-4.5,4.5H28.6
		C12.8,309,0,296.2,0,280.4v-53.2C0,224.7,2,222.7,4.5,222.7L4.5,222.7z"/>
</g>
</svg>
