<?xml version="1.0" encoding="utf-8"?>
<!-- Generator: Adobe Illustrator 23.1.0, SVG Export Plug-In . SVG Version: 6.00 Build 0)  -->
<svg version="1.1" id="Layer_1" xmlns="http://www.w3.org/2000/svg" xmlns:xlink="http://www.w3.org/1999/xlink" x="0px" y="0px"
	 viewBox="0 0 364.1 364.1" style="enable-background:new 0 0 364.1 364.1;" xml:space="preserve">
<style type="text/css">
	.st0{fill:#7B99B3;}
	.st1{fill:#003354;}
</style>
<g>
	<path class="st0" d="M207.9,207.6c-62.1,60.9-75.1,47.9-81.4,44.4c-6.6-3.8-18-26.6-17-34.9c1-8.2,29.7-22.6,38.3-16.5
		c6,4.3,9.9,13,18.4,8.5c8.5-4.5,14.9-10,24-19.2c9.2-9.1,14.6-15.5,19.2-24c4.5-8.6-4.2-12.4-8.5-18.4c-6-8.6,8.3-37.3,16.5-38.3
		c8.3-1,31.1,10.4,34.9,17C255.8,132.5,268.8,145.6,207.9,207.6L207.9,207.6z"/>
	<path class="st1" d="M218.2,113.9l-0.2,0l-0.2,0.1c-2.8,1.2-9,9.7-12.2,19.8c-2.1,6.7-1.5,10.2-0.9,11c0.9,1.3,2.2,2.6,3.6,3.9
		c4,4,10.1,10.1,5.3,19.4c-4.9,9.2-10.8,15.9-20,25.1c-9.2,9.2-15.9,15.1-25.2,20c-2.3,1.2-4.5,1.8-6.7,1.8c-5.7,0-9.6-3.9-12.7-7.1
		c-1.3-1.4-2.6-2.6-3.9-3.5c-0.5-0.4-1.7-0.6-3-0.6c-9.7,0-26,9.3-27.9,13.7l-0.1,0.1l0,0.2c-0.5,6.8,10.1,27.3,14.7,30
		c0.3,0.2,0.7,0.4,1.1,0.6c1.9,1.1,3.9,2.3,7.4,2.3c9,0,28-8.1,67.3-46.6c24.4-24.9,39.4-44.4,44.6-58.1c3.7-9.8,1.4-13.7-0.3-16.5
		c-0.2-0.4-0.4-0.7-0.6-1.1c-2.7-4.6-22.2-14.7-29.7-14.7C218.4,113.9,218.3,113.9,218.2,113.9L218.2,113.9z M137.3,260.4
		c-6.1,0-9.9-2.3-12.2-3.7c-0.3-0.2-0.6-0.4-0.9-0.5l-0.1-0.1c-8.4-4.9-20.5-29.6-19.3-39.6c1.3-10.7,25.2-22.1,37.3-22.1
		c3.4,0,6.3,0.8,8.5,2.3c1.9,1.4,3.6,3.1,5.2,4.6c2.2,2.2,4.3,4.3,6,4.3c0.8,0,1.7-0.4,2.3-0.7c8.2-4.3,14.3-9.8,22.9-18.3
		c8.5-8.5,14-14.7,18.3-22.9c1.4-2.7,0.9-3.9-3.6-8.4c-1.5-1.5-3.2-3.2-4.6-5.1c-5-7.1-0.8-19.3,2.1-25.9c1.9-4.4,9-18.7,17.7-19.8
		c0.5-0.1,1-0.1,1.6-0.1c9.9,0,33,11,38,19.5c0.2,0.3,0.3,0.6,0.5,0.9c2.2,3.7,6.4,10.7,1.1,24.7c-5.8,15.1-21.1,35.2-46.8,61.5
		C177.4,244.2,153.2,260.4,137.3,260.4L137.3,260.4L137.3,260.4z"/>
	<path class="st1" d="M182.1,307.3c13.4,0,26.5-2.1,39.1-6.2c1.2-0.4,2.2-1.2,2.7-2.4c0.6-1.1,0.7-2.4,0.3-3.6
		c-0.6-1.9-2.4-3.2-4.5-3.2c-0.5,0-1,0.1-1.5,0.2c-11.6,3.8-23.8,5.8-36.2,5.8c-63.9,0-115.8-52-115.8-115.8
		c0-63.9,52-115.8,115.8-115.8s115.8,52,115.8,115.8c0,21.1-5.7,41.8-16.6,59.7c-1.3,2.2-0.6,5.1,1.6,6.5c0.7,0.4,1.6,0.7,2.4,0.7
		c1.7,0,3.2-0.9,4-2.3c11.7-19.4,17.9-41.8,17.9-64.6c0-69.1-56.2-125.3-125.3-125.3S56.8,113,56.8,182.1
		C56.8,251.1,113,307.3,182.1,307.3L182.1,307.3z"/>
	<path class="st1" d="M182.1,364.1c48.6,0,94.4-18.9,128.7-53.3c34.4-34.4,53.3-80.1,53.3-128.7c0-48.6-18.9-94.4-53.3-128.7
		C276.4,18.9,230.7,0,182.1,0c-21.5,0-42.5,3.7-62.5,11c-2.4,0.9-3.7,3.6-2.8,6c0.7,1.9,2.5,3.1,4.4,3.1c0.6,0,1.1-0.1,1.6-0.3
		c18.9-6.9,38.9-10.4,59.2-10.4c95.2,0,172.6,77.4,172.6,172.6c0,95.2-77.4,172.6-172.6,172.6c-23.3,0-45.9-4.6-67.2-13.6
		c-0.6-0.2-1.2-0.4-1.8-0.4c-1.9,0-3.6,1.1-4.3,2.9c-1,2.4,0.1,5.2,2.5,6.2C133.6,359.3,157.5,364.1,182.1,364.1L182.1,364.1z"/>
	<path class="st1" d="M24.6,268.5c0.8,0,1.5-0.2,2.2-0.5c1.1-0.6,1.9-1.6,2.3-2.8c0.4-1.2,0.3-2.5-0.3-3.6
		c-12.7-24.4-19.4-51.9-19.4-79.5C9.4,140,24.7,99.5,52.5,68c0.8-0.9,1.2-2.2,1.2-3.4c-0.1-1.3-0.6-2.4-1.6-3.2
		c-0.9-0.8-2-1.2-3.1-1.2c-1.4,0-2.6,0.6-3.5,1.6C16.1,95,0,137.7,0,182.1c0,29.2,7.1,58.2,20.4,83.9
		C21.3,267.5,22.9,268.5,24.6,268.5L24.6,268.5z"/>
</g>
</svg>
