<?xml version="1.0" encoding="utf-8"?>
<!-- Generator: Adobe Illustrator 23.1.0, SVG Export Plug-In . SVG Version: 6.00 Build 0)  -->
<svg version="1.1" id="Layer_1" xmlns="http://www.w3.org/2000/svg" xmlns:xlink="http://www.w3.org/1999/xlink" x="0px" y="0px"
	 viewBox="0 0 309 309" style="enable-background:new 0 0 309 309;" xml:space="preserve">
<style type="text/css">
	.st0{fill:#003354;}
	.st1{fill:#FFFFFF;}
	.st2{fill:#7B99B3;}
</style>
<g>
	<path class="st0" d="M300,280.4c0,10.8-8.8,19.6-19.6,19.6H28.6C17.8,300,9,291.2,9,280.4V28.6C9,17.8,17.8,9,28.6,9h251.7
		c10.8,0,19.6,8.8,19.6,19.6V280.4L300,280.4z M309,280.4V28.6C309,12.8,296.2,0,280.4,0H28.6C12.8,0,0,12.8,0,28.6v251.7
		C0,296.2,12.8,309,28.6,309h251.7C296.2,309,309,296.2,309,280.4L309,280.4z"/>
	<path class="st1" d="M300,280.4c0,10.8-8.8,19.6-19.6,19.6H28.6C17.8,300,9,291.2,9,280.4V28.6C9,17.8,17.8,9,28.6,9h251.7
		c10.8,0,19.6,8.8,19.6,19.6V280.4L300,280.4z"/>
	<path class="st0" d="M225.5,154c-3,1.4-6.5,3.6-9.9,7c-5.8,5.8-7,13.9-7,18.7c-4.5,1.3-12,4.3-18.2,10.6c-5.9,5.9-8.9,13-10.4,17.5
		c-0.6-0.1-1.3-0.1-1.9-0.1c-4.5,0-10.7,1.6-17,7.9c-3.6,3.6-6,6.8-7.4,9.5l-87.5-87.5c-6.7-6.7-6.7-17.7,0-24.4l4.7-4.7l85.8,85.8
		c0.9,0.9,2,1.3,3.2,1.3c1.2,0,2.3-0.4,3.2-1.3c1.8-1.8,1.8-4.6,0-6.4l-85.8-85.8l24.6-24.6l85.8,85.8c0.9,0.9,2,1.3,3.2,1.3
		c1.2,0,2.3-0.4,3.2-1.3c1.8-1.8,1.8-4.6,0-6.4l-85.8-85.8l5.2-5.2c6.7-6.7,17.6-6.7,24.4,0L225.5,154L225.5,154z M211,242.4
		l31.4-31.4l4.8,36.2L211,242.4L211,242.4z M240.7,200L200,240.7l-39-10.2c0.8-1.8,2.5-4.6,6.4-8.5c7.4-7.4,13.3-5,13.9-4.7
		c1.3,0.6,2.8,0.6,4,0c1.3-0.7,2.1-1.9,2.4-3.3c0-0.1,1.7-9.9,9-17.2c7.4-7.4,17.1-9,17.2-9c2.4-0.4,4.1-2.6,3.8-5
		c0-0.1-1.1-9.8,4.3-15.3c3-3,6.2-4.8,8.6-5.8L240.7,200L240.7,200z M255.6,255.6c1-1,1.5-2.4,1.3-3.8l-6.7-51
		c0-0.2-0.1-0.3-0.1-0.4c0,0,0-0.1,0-0.1l-11.9-45.4c0-0.1-0.1-0.1-0.1-0.2c-0.1-0.2-0.1-0.3-0.2-0.5c0-0.1-0.1-0.2-0.1-0.3
		c-0.1-0.2-0.2-0.4-0.4-0.6c0,0-0.1-0.1-0.1-0.1c-0.1-0.1-0.2-0.2-0.3-0.4l-93-93c-10.2-10.2-26.9-10.2-37.1,0l-47.2,47.2
		c-10.2,10.2-10.2,26.9,0,37.1l93,93c0.1,0.1,0.1,0.1,0.2,0.2c0.1,0.1,0.2,0.2,0.4,0.3c0.1,0.1,0.2,0.2,0.4,0.2
		c0.1,0.1,0.3,0.1,0.4,0.2c0.1,0.1,0.3,0.1,0.4,0.2c0.1,0,0.2,0.1,0.3,0.1l45.4,11.9c0.1,0,0.3,0.1,0.4,0.1c0,0,0.1,0,0.1,0l51,6.7
		c0.2,0,0.4,0,0.6,0C253.6,256.9,254.7,256.4,255.6,255.6L255.6,255.6z"/>
	<polygon class="st2" points="247.2,247.2 211,242.4 242.4,211 247.2,247.2 	"/>
	<path class="st2" d="M66.1,113.3l4.7-4.7l85.8,85.8c0.9,0.9,2,1.3,3.2,1.3c1.2,0,2.3-0.4,3.2-1.3c1.8-1.8,1.8-4.6,0-6.4l-85.8-85.8
		l24.6-24.6l85.8,85.8c0.9,0.9,2,1.3,3.2,1.3c1.2,0,2.3-0.4,3.2-1.3c1.8-1.8,1.8-4.6,0-6.4l-85.8-85.8l5.2-5.2
		c6.7-6.7,17.6-6.7,24.4,0l87.9,87.9c-3,1.4-6.5,3.6-9.9,7c-5.8,5.8-7,13.9-7,18.7c-4.5,1.3-12,4.3-18.2,10.6
		c-5.9,5.9-8.9,13-10.4,17.5c-0.6-0.1-1.3-0.1-1.9-0.1c-4.5,0-10.7,1.6-17,7.9c-3.6,3.6-6,6.8-7.4,9.5l-87.5-87.5
		C59.4,131,59.4,120,66.1,113.3L66.1,113.3z"/>
	<path class="st1" d="M181.3,217.3c1.3,0.6,2.8,0.6,4,0c1.3-0.7,2.1-1.9,2.4-3.3c0-0.1,1.7-9.9,9-17.2c7.4-7.4,17.1-9,17.2-9
		c2.4-0.4,4.1-2.6,3.8-5c0-0.1-1.1-9.8,4.3-15.3c3-3,6.2-4.8,8.6-5.8l10,38.4L200,240.7l-39-10.2c0.8-1.8,2.5-4.6,6.4-8.5
		C174.8,214.7,180.7,217,181.3,217.3L181.3,217.3z"/>
</g>
</svg>
